<svg xmlns="http://www.w3.org/2000/svg" xmlns:xlink="http://www.w3.org/1999/xlink" width="1100" zoomAndPan="magnify" viewBox="0 0 824.88 225" height="300" preserveAspectRatio="xMidYMid meet" version="1.0"><defs><g/><clipPath id="470611dc8f"><path d="M 33 6 L 281 6 L 281 208.410156 L 33 208.410156 Z M 33 6 " clip-rule="nonzero"/></clipPath><clipPath id="e1ab0170f0"><path d="M 122 15 L 281.742188 15 L 281.742188 180 L 122 180 Z M 122 15 " clip-rule="nonzero"/></clipPath><clipPath id="0aff460574"><path d="M 10.28125 132 L 36 132 L 36 140 L 10.28125 140 Z M 10.28125 132 " clip-rule="nonzero"/></clipPath></defs><g clip-path="url(#470611dc8f)"><path fill="#f89335" d="M 89.175781 128.933594 L 90.8125 128.933594 L 101.089844 146.742188 L 113.109375 146.742188 L 113.109375 150.503906 L 82.421875 150.503906 L 82.421875 158.027344 L 107.585938 158.027344 L 118.761719 177.421875 L 128.992188 177.421875 L 128.992188 181.183594 L 82.269531 181.183594 L 82.269531 184.945312 L 82.292969 184.945312 L 82.292969 188.707031 L 125.257812 188.707031 L 125.335938 188.832031 C 130.066406 197.046875 138.222656 201.753906 147.6875 201.753906 L 170.367188 201.753906 C 170.878906 201.753906 171.390625 201.730469 171.902344 201.703125 C 177.476562 201.394531 182.542969 199.453125 186.632812 196.074219 C 189.011719 194.128906 191.082031 191.671875 192.71875 188.832031 L 194.253906 186.171875 L 194.355469 186.019531 L 212.15625 155.160156 L 216.527344 147.585938 L 253.609375 147.585938 L 234.300781 181.03125 C 232.460938 184.226562 229.699219 185.941406 226.09375 186.148438 C 223.5625 181.363281 218.523438 178.085938 212.742188 178.085938 C 204.40625 178.085938 197.65625 184.84375 197.65625 193.183594 C 197.65625 201.523438 204.40625 208.277344 212.742188 208.277344 C 217.910156 208.277344 222.460938 205.667969 225.199219 201.730469 L 225.429688 201.730469 C 234.917969 201.730469 243.046875 197.019531 247.78125 188.808594 L 267.214844 155.136719 L 271.589844 147.5625 L 280.308594 132.441406 C 278.722656 132.160156 277.0625 132.003906 275.371094 132.003906 L 207.527344 132.003906 L 198.550781 147.585938 L 185.355469 170.4375 L 179.242188 181.03125 C 179.039062 181.414062 178.808594 181.746094 178.550781 182.078125 C 176.609375 184.765625 173.847656 186.148438 170.367188 186.148438 L 147.683594 186.148438 C 143.773438 186.148438 140.78125 184.40625 138.8125 181.03125 L 99.941406 113.6875 C 97.972656 110.28125 97.972656 106.828125 99.941406 103.425781 L 135.667969 41.53125 L 138.683594 36.3125 C 146.613281 35.851562 152.902344 29.277344 152.902344 21.242188 C 152.902344 12.898438 146.152344 6.144531 137.8125 6.144531 C 129.476562 6.144531 122.726562 12.898438 122.726562 21.242188 C 122.726562 24.105469 123.519531 26.792969 124.925781 29.070312 L 123.851562 30.9375 L 119.785156 38 L 128.453125 38 L 128.453125 41.761719 L 87.996094 41.761719 L 87.996094 49.285156 L 113.289062 49.285156 L 108.125 58.214844 L 119.863281 58.214844 L 119.863281 61.976562 L 70.378906 61.976562 L 70.378906 69.496094 L 101.601562 69.496094 L 90.988281 87.867188 L 102.933594 87.867188 L 102.933594 91.628906 L 70.351562 91.628906 L 70.351562 99.152344 L 84.773438 99.152344 C 82.320312 105.214844 82.269531 111.714844 84.648438 117.78125 L 93.445312 117.78125 L 93.445312 121.539062 L 33.78125 121.539062 L 33.78125 129.0625 L 89.148438 129.0625 Z M 89.175781 128.933594 " fill-opacity="1" fill-rule="evenodd"/></g><g clip-path="url(#e1ab0170f0)"><path fill="#f89335" d="M 189.90625 15.332031 L 171.929688 15.332031 L 162.953125 30.914062 L 156.203125 42.632812 L 145.078125 61.925781 L 136.382812 76.996094 L 125.640625 95.597656 C 125.285156 96.210938 124.949219 96.824219 124.667969 97.4375 C 121.242188 104.578125 121.242188 112.433594 124.667969 119.570312 C 124.976562 120.183594 125.285156 120.796875 125.640625 121.414062 L 136.382812 140.015625 L 145.078125 155.085938 L 146.101562 156.851562 C 144.820312 159.074219 144.105469 161.636719 144.105469 164.371094 C 144.105469 172.714844 150.855469 179.46875 159.195312 179.46875 C 167.53125 179.46875 174.28125 172.714844 174.28125 164.371094 C 174.28125 156.210938 167.785156 149.558594 159.703125 149.277344 L 139.117188 113.609375 C 137.148438 110.207031 137.148438 106.75 139.117188 103.347656 L 171.878906 46.597656 L 178.605469 34.929688 L 180.957031 30.863281 L 225.453125 30.863281 C 229.367188 30.863281 232.359375 32.601562 234.328125 35.980469 L 254.8125 71.46875 L 217.757812 71.46875 L 212.207031 61.871094 L 209.265625 56.78125 C 210.085938 54.914062 210.542969 52.867188 210.542969 50.691406 C 210.542969 42.351562 203.792969 35.59375 195.457031 35.59375 C 187.121094 35.59375 180.367188 42.351562 180.367188 50.691406 C 180.367188 59.03125 187.121094 65.789062 195.457031 65.789062 C 195.816406 65.789062 196.148438 65.789062 196.480469 65.761719 L 199.777344 71.46875 L 208.753906 87.050781 L 281.765625 87.050781 L 272.789062 71.46875 L 267.242188 61.871094 L 247.804688 28.199219 C 243.074219 19.988281 234.941406 15.28125 225.453125 15.28125 L 189.933594 15.28125 Z M 189.90625 15.332031 " fill-opacity="1" fill-rule="evenodd"/></g><path fill="#d9d9d9" d="M 45.164062 48.464844 L 73.34375 48.464844 L 73.34375 55.960938 L 45.164062 55.960938 Z M 45.164062 48.464844 " fill-opacity="1" fill-rule="evenodd"/><path fill="#d9d9d9" d="M 34.90625 80.269531 L 65.136719 80.269531 L 65.136719 87.765625 L 34.90625 87.765625 Z M 34.90625 80.269531 " fill-opacity="1" fill-rule="evenodd"/><path fill="#d9d9d9" d="M 51.785156 138.070312 L 77.640625 138.070312 L 77.640625 145.59375 L 51.785156 145.59375 Z M 51.785156 138.070312 " fill-opacity="1" fill-rule="evenodd"/><path fill="#d9d9d9" d="M 52.117188 171.304688 L 85.132812 171.304688 L 85.132812 178.828125 L 52.117188 178.828125 Z M 52.117188 171.304688 " fill-opacity="1" fill-rule="evenodd"/><g clip-path="url(#0aff460574)"><path fill="#d9d9d9" d="M 10.28125 132.441406 L 35.855469 132.441406 L 35.855469 139.9375 L 10.28125 139.9375 Z M 10.28125 132.441406 " fill-opacity="1" fill-rule="evenodd"/></g><g fill="#d9d9d9" fill-opacity="1"><g transform="translate(300.780062, 151.803948)"><g><path d="M 15.046875 -10.375 C 7.472656 -17.726562 3.6875 -27.050781 3.6875 -38.34375 C 3.6875 -49.644531 7.472656 -58.972656 15.046875 -66.328125 C 22.617188 -73.679688 31.867188 -77.359375 42.796875 -77.359375 C 51.273438 -77.359375 58.804688 -75.109375 65.390625 -70.609375 C 71.984375 -66.117188 76.585938 -59.894531 79.203125 -51.9375 L 57.03125 -51.9375 C 54.132812 -57.507812 49.5 -60.296875 43.125 -60.296875 C 36.75 -60.296875 31.734375 -58.300781 28.078125 -54.3125 C 24.421875 -50.332031 22.59375 -45.007812 22.59375 -38.34375 C 22.59375 -31.6875 24.421875 -26.363281 28.078125 -22.375 C 31.734375 -18.394531 36.75 -16.40625 43.125 -16.40625 C 49.5 -16.40625 54.132812 -19.191406 57.03125 -24.765625 L 79.203125 -24.765625 C 76.585938 -16.796875 71.984375 -10.566406 65.390625 -6.078125 C 58.804688 -1.585938 51.273438 0.65625 42.796875 0.65625 C 31.867188 0.65625 22.617188 -3.019531 15.046875 -10.375 Z M 15.046875 -10.375 "/></g></g></g><g fill="#d9d9d9" fill-opacity="1"><g transform="translate(393.882406, 151.803948)"><g><path d="M 26.71875 -60.625 L 26.71875 -49.328125 C 31.070312 -57.285156 36.867188 -61.265625 44.109375 -61.265625 L 44.109375 -42.375 L 39.546875 -42.375 C 35.273438 -42.375 32.066406 -41.359375 29.921875 -39.328125 C 27.785156 -37.296875 26.71875 -33.75 26.71875 -28.6875 L 26.71875 0 L 8.140625 0 L 8.140625 -60.625 Z M 26.71875 -60.625 "/></g></g></g><g fill="#d9d9d9" fill-opacity="1"><g transform="translate(450.048625, 151.803948)"><g><path d="M 33.890625 0.765625 C 25.054688 0.765625 17.8125 -2.078125 12.15625 -7.765625 C 6.507812 -13.453125 3.6875 -21.003906 3.6875 -30.421875 C 3.6875 -39.835938 6.492188 -47.332031 12.109375 -52.90625 C 17.722656 -58.476562 24.984375 -61.265625 33.890625 -61.265625 C 42.804688 -61.265625 50.195312 -58.515625 56.0625 -53.015625 C 61.925781 -47.515625 64.859375 -39.875 64.859375 -30.09375 C 64.859375 -27.988281 64.710938 -26.035156 64.421875 -24.234375 L 22.703125 -24.234375 C 23.066406 -21.546875 24.257812 -19.347656 26.28125 -17.640625 C 28.3125 -15.941406 30.503906 -15.09375 32.859375 -15.09375 C 35.210938 -15.09375 36.96875 -15.328125 38.125 -15.796875 C 39.289062 -16.273438 40.144531 -16.75 40.6875 -17.21875 C 41.226562 -17.6875 41.929688 -18.46875 42.796875 -19.5625 L 62.90625 -19.5625 C 61.164062 -13.46875 57.6875 -8.554688 52.46875 -4.828125 C 47.257812 -1.097656 41.066406 0.765625 33.890625 0.765625 Z M 45.515625 -35.84375 C 45.222656 -38.675781 43.988281 -40.976562 41.8125 -42.75 C 39.644531 -44.519531 37.078125 -45.40625 34.109375 -45.40625 C 31.140625 -45.40625 28.640625 -44.519531 26.609375 -42.75 C 24.585938 -40.976562 23.320312 -38.675781 22.8125 -35.84375 Z M 45.515625 -35.84375 "/></g></g></g><g fill="#d9d9d9" fill-opacity="1"><g transform="translate(528.811065, 151.803948)"><g><path d="M 4.015625 -42.375 C 4.015625 -47.726562 6.296875 -52.210938 10.859375 -55.828125 C 15.421875 -59.453125 21.59375 -61.265625 29.375 -61.265625 C 37.164062 -61.265625 43.453125 -59.488281 48.234375 -55.9375 C 53.015625 -52.394531 55.550781 -47.546875 55.84375 -41.390625 L 36.828125 -41.390625 C 36.609375 -43.492188 35.882812 -44.925781 34.65625 -45.6875 C 33.425781 -46.445312 31.578125 -46.828125 29.109375 -46.828125 C 24.265625 -46.828125 21.84375 -45.34375 21.84375 -42.375 C 21.84375 -39.6875 24.8125 -37.835938 30.75 -36.828125 C 36.757812 -35.816406 42.226562 -34.257812 47.15625 -32.15625 C 49.6875 -31.144531 51.800781 -29.460938 53.5 -27.109375 C 55.207031 -24.753906 56.0625 -21.875 56.0625 -18.46875 C 56.0625 -12.820312 53.632812 -8.203125 48.78125 -4.609375 C 43.925781 -1.023438 37.804688 0.765625 30.421875 0.765625 C 23.035156 0.765625 16.878906 -0.914062 11.953125 -4.28125 C 7.023438 -7.65625 4.34375 -12.640625 3.90625 -19.234375 L 22.921875 -19.234375 C 23.429688 -15.535156 26.039062 -13.6875 30.75 -13.6875 C 32.914062 -13.6875 34.703125 -14.191406 36.109375 -15.203125 C 37.523438 -16.222656 38.234375 -17.53125 38.234375 -19.125 C 38.234375 -20.71875 37.054688 -21.984375 34.703125 -22.921875 C 32.359375 -23.859375 29.519531 -24.65625 26.1875 -25.3125 C 22.851562 -25.96875 19.5 -26.78125 16.125 -27.75 C 12.757812 -28.726562 9.898438 -30.429688 7.546875 -32.859375 C 5.191406 -35.285156 4.015625 -38.457031 4.015625 -42.375 Z M 4.015625 -42.375 "/></g></g></g><g fill="#d9d9d9" fill-opacity="1"><g transform="translate(599.208573, 151.803948)"><g><path d="M 25.09375 -67.453125 C 23 -65.359375 20.425781 -64.3125 17.375 -64.3125 C 14.332031 -64.3125 11.757812 -65.359375 9.65625 -67.453125 C 7.5625 -69.554688 6.515625 -72.144531 6.515625 -75.21875 C 6.515625 -78.300781 7.5625 -80.894531 9.65625 -83 C 11.757812 -85.101562 14.332031 -86.15625 17.375 -86.15625 C 20.425781 -86.15625 23 -85.101562 25.09375 -83 C 27.195312 -80.894531 28.25 -78.300781 28.25 -75.21875 C 28.25 -72.144531 27.195312 -69.554688 25.09375 -67.453125 Z M 8.140625 0 L 8.140625 -60.625 L 26.71875 -60.625 L 26.71875 0 Z M 8.140625 0 "/></g></g></g><g fill="#d9d9d9" fill-opacity="1"><g transform="translate(644.185313, 151.803948)"><g><path d="M 33.890625 -15.75 L 40.515625 -15.75 L 40.515625 0 L 31.078125 0 C 24.265625 0 18.992188 -1.5 15.265625 -4.5 C 11.535156 -7.507812 9.671875 -12.671875 9.671875 -19.984375 L 9.671875 -45.1875 L 4.015625 -45.1875 L 4.015625 -60.625 L 9.671875 -60.625 L 9.671875 -75.390625 L 28.25 -75.390625 L 28.25 -60.625 L 40.421875 -60.625 L 40.421875 -45.1875 L 28.25 -45.1875 L 28.25 -19.984375 C 28.25 -17.160156 30.128906 -15.75 33.890625 -15.75 Z M 33.890625 -15.75 "/></g></g></g><g fill="#d9d9d9" fill-opacity="1"><g transform="translate(699.373795, 151.803948)"><g><path d="M 33.890625 0.765625 C 25.054688 0.765625 17.8125 -2.078125 12.15625 -7.765625 C 6.507812 -13.453125 3.6875 -21.003906 3.6875 -30.421875 C 3.6875 -39.835938 6.492188 -47.332031 12.109375 -52.90625 C 17.722656 -58.476562 24.984375 -61.265625 33.890625 -61.265625 C 42.804688 -61.265625 50.195312 -58.515625 56.0625 -53.015625 C 61.925781 -47.515625 64.859375 -39.875 64.859375 -30.09375 C 64.859375 -27.988281 64.710938 -26.035156 64.421875 -24.234375 L 22.703125 -24.234375 C 23.066406 -21.546875 24.257812 -19.347656 26.28125 -17.640625 C 28.3125 -15.941406 30.503906 -15.09375 32.859375 -15.09375 C 35.210938 -15.09375 36.96875 -15.328125 38.125 -15.796875 C 39.289062 -16.273438 40.144531 -16.75 40.6875 -17.21875 C 41.226562 -17.6875 41.929688 -18.46875 42.796875 -19.5625 L 62.90625 -19.5625 C 61.164062 -13.46875 57.6875 -8.554688 52.46875 -4.828125 C 47.257812 -1.097656 41.066406 0.765625 33.890625 0.765625 Z M 45.515625 -35.84375 C 45.222656 -38.675781 43.988281 -40.976562 41.8125 -42.75 C 39.644531 -44.519531 37.078125 -45.40625 34.109375 -45.40625 C 31.140625 -45.40625 28.640625 -44.519531 26.609375 -42.75 C 24.585938 -40.976562 23.320312 -38.675781 22.8125 -35.84375 Z M 45.515625 -35.84375 "/></g></g></g></svg>